<svg width="1913" height="1449" viewBox="0 0 1913 1449" fill="none" xmlns="http://www.w3.org/2000/svg">
<rect width="1912.77" height="1443.09" fill="#085800"/>
<rect x="83.1062" y="459.308" width="600" height="600" rx="300" fill="#E5B80B"/>
<path d="M269.383 783.522L352.393 748.117V962.759H242.064L269.383 783.522Z" fill="#085800"/>
<rect x="468.24" y="598.94" width="77.2309" height="364.892" fill="#085800"/>
<rect x="370.046" y="685.87" width="75.0243" height="276.889" fill="#085800"/>
<path d="M279.854 815.268C279.854 815.268 301.199 806.707 301.826 813.288C302.453 819.868 302.871 824.255 302.871 824.255L280.899 826.236L279.854 815.268Z" fill="#E5B80B"/>
<path d="M385.771 739.07C385.771 739.07 407.116 730.509 407.743 737.09C408.37 743.67 408.788 748.057 408.788 748.057L386.816 750.038L385.771 739.07Z" fill="#E5B80B"/>
<path d="M489.481 659.652C489.481 659.652 510.826 651.091 511.453 657.672C512.08 664.252 512.498 668.639 512.498 668.639L490.526 670.62L489.481 659.652Z" fill="#E5B80B"/>
<path d="M488.378 711.166C488.378 711.166 509.723 702.606 510.35 709.186C510.976 715.767 511.394 720.154 511.394 720.154L489.422 722.134L488.378 711.166Z" fill="#E5B80B"/>
<path d="M487.275 762.681C487.275 762.681 508.62 754.12 509.246 760.7C509.873 767.281 510.291 771.668 510.291 771.668L488.319 773.648L487.275 762.681Z" fill="#E5B80B"/>
<path d="M486.171 814.195C486.171 814.195 507.516 805.634 508.143 812.215C508.77 818.795 509.188 823.182 509.188 823.182L487.216 825.162L486.171 814.195Z" fill="#E5B80B"/>
<path d="M485.068 865.709C485.068 865.709 506.413 857.148 507.04 863.729C507.666 870.309 508.084 874.696 508.084 874.696L486.112 876.677L485.068 865.709Z" fill="#E5B80B"/>
<path d="M483.965 917.223C483.965 917.223 505.31 908.663 505.936 915.243C506.563 921.824 506.981 926.211 506.981 926.211L485.009 928.191L483.965 917.223Z" fill="#E5B80B"/>
<path d="M384.668 778.779C384.668 778.779 406.013 770.218 406.64 776.798C407.266 783.379 407.684 787.766 407.684 787.766L385.712 789.746L384.668 778.779Z" fill="#E5B80B"/>
<path d="M383.564 818.488C383.564 818.488 404.909 809.927 405.536 816.508C406.163 823.088 406.581 827.475 406.581 827.475L384.609 829.455L383.564 818.488Z" fill="#E5B80B"/>
<path d="M382.461 858.197C382.461 858.197 403.806 849.636 404.433 856.216C405.06 862.797 405.478 867.184 405.478 867.184L383.506 869.164L382.461 858.197Z" fill="#E5B80B"/>
<path d="M381.358 897.905C381.358 897.905 402.703 889.345 403.33 895.925C403.956 902.506 404.374 906.893 404.374 906.893L382.402 908.873L381.358 897.905Z" fill="#E5B80B"/>
<path d="M316.263 842.099C316.263 842.099 337.608 833.538 338.235 840.118C338.862 846.699 339.28 851.086 339.28 851.086L317.308 853.066L316.263 842.099Z" fill="#E5B80B"/>
<path d="M316.263 871.075C316.263 871.075 337.608 862.514 338.235 869.095C338.862 875.675 339.28 880.062 339.28 880.062L317.308 882.043L316.263 871.075Z" fill="#E5B80B"/>
<path d="M316.263 900.052C316.263 900.052 337.608 891.491 338.235 898.072C338.862 904.652 339.28 909.039 339.28 909.039L317.308 911.019L316.263 900.052Z" fill="#E5B80B"/>
<path d="M316.263 929.029C316.263 929.029 337.608 920.468 338.235 927.048C338.862 933.629 339.28 938.016 339.28 938.016L317.308 939.996L316.263 929.029Z" fill="#E5B80B"/>
<path d="M278.751 844.245C278.751 844.245 300.096 835.684 300.723 842.265C301.35 848.845 301.768 853.232 301.768 853.232L279.796 855.212L278.751 844.245Z" fill="#E5B80B"/>
<path d="M277.648 873.221C277.648 873.221 298.993 864.661 299.62 871.241C300.246 877.822 300.664 882.209 300.664 882.209L278.692 884.189L277.648 873.221Z" fill="#E5B80B"/>
<path d="M276.544 902.198C276.544 902.198 297.89 893.638 298.516 900.218C299.143 906.799 299.561 911.186 299.561 911.186L277.589 913.166L276.544 902.198Z" fill="#E5B80B"/>
<path d="M275.441 931.175C275.441 931.175 296.786 922.614 297.413 929.195C298.04 935.775 298.458 940.162 298.458 940.162L276.486 942.143L275.441 931.175Z" fill="#E5B80B"/>
<path d="M445.219 685.428L320.514 725.711L334.148 617.131L445.219 685.428Z" fill="#085800"/>
<path d="M550.248 598.257L405.543 655.536L407.134 538.262L550.248 598.257Z" fill="#085800"/>
<ellipse cx="233.684" cy="680.284" rx="50.684" ry="53.2843" fill="#085800"/>
<path d="M249.096 670.572L247.208 677.014H211.221L213.11 670.572H249.096ZM232.213 714L211.888 689.121L211.777 684.456H221.884C224.513 684.456 226.752 684.086 228.604 683.345C230.455 682.586 231.871 681.457 232.852 679.957C233.833 678.44 234.324 676.533 234.324 674.237C234.324 670.85 233.306 668.193 231.269 666.268C229.233 664.325 226.105 663.353 221.884 663.353H211.221L213.11 657.133H221.884C226.401 657.133 230.103 657.883 232.991 659.382C235.897 660.863 238.044 662.899 239.433 665.491C240.84 668.064 241.543 670.979 241.543 674.237C241.543 677.181 240.895 679.893 239.599 682.373C238.322 684.835 236.267 686.816 233.435 688.315C230.621 689.815 226.901 690.565 222.273 690.565H222.106L240.877 713.556V714H232.213ZM249.096 657.133L247.208 663.575L218.885 663.353L220.773 657.133H249.096Z" fill="#E5B80B"/>
<rect x="789" y="901" width="958.403" height="84.7876" fill="#E5B80B"/>
<path d="M830.542 963.57C828.636 963.57 826.908 963.134 825.358 962.262C823.808 961.358 822.564 960.163 821.627 958.677C820.723 957.159 820.271 955.447 820.271 953.541C820.271 952.12 820.578 950.796 821.191 949.568C821.837 948.308 822.693 947.226 823.759 946.322C822.725 945.45 821.902 944.416 821.288 943.221C820.707 942.026 820.416 940.766 820.416 939.442C820.416 937.569 820.868 935.905 821.773 934.452C822.677 932.966 823.888 931.803 825.406 930.963C826.925 930.091 828.604 929.655 830.445 929.655H844.738V936.487L831.705 936.438C831.091 936.438 830.526 936.584 830.009 936.874C829.492 937.165 829.072 937.553 828.749 938.037C828.459 938.522 828.313 939.087 828.313 939.733C828.313 940.346 828.459 940.912 828.749 941.429C829.072 941.913 829.492 942.301 830.009 942.591C830.526 942.85 831.091 942.979 831.705 942.979H843.091V949.762H831.947C831.269 949.762 830.655 949.923 830.106 950.246C829.557 950.569 829.121 950.989 828.798 951.506C828.475 952.023 828.313 952.62 828.313 953.299C828.313 953.945 828.475 954.542 828.798 955.091C829.121 955.608 829.557 956.012 830.106 956.303C830.655 956.593 831.269 956.739 831.947 956.739H844.738V963.57H830.542ZM847.248 963.57L856.114 948.987C854.532 948.341 853.175 947.485 852.044 946.419C850.914 945.321 850.026 944.013 849.38 942.494C848.766 940.976 848.459 939.264 848.459 937.359V929.655H856.599V937.843C856.599 938.683 856.76 939.474 857.083 940.217C857.439 940.928 857.923 941.525 858.537 942.01C859.183 942.462 859.926 942.753 860.765 942.882L868.614 929.655H877.675L868.808 943.948C870.585 944.465 872.135 945.272 873.459 946.37C874.784 947.469 875.801 948.825 876.512 950.44C877.222 952.023 877.578 953.816 877.578 955.818V963.57H869.438V955.431C869.438 953.977 868.986 952.75 868.081 951.748C867.177 950.715 865.917 950.182 864.302 950.15L856.308 963.57H847.248ZM882.281 963.57V929.655H896.865C899.126 929.655 901.193 930.172 903.066 931.206C904.972 932.239 906.49 933.676 907.62 935.518C908.751 937.326 909.316 939.426 909.316 941.816C909.316 944.206 908.751 946.338 907.62 948.212C906.49 950.053 904.988 951.49 903.115 952.524C901.241 953.557 899.158 954.074 896.865 954.074H890.421V963.57H882.281ZM890.421 947.243H895.944C896.913 947.243 897.785 947.033 898.56 946.613C899.336 946.193 899.965 945.579 900.45 944.772C900.934 943.964 901.177 942.995 901.177 941.865C901.177 940.734 900.934 939.765 900.45 938.958C899.965 938.15 899.319 937.536 898.512 937.116C897.737 936.664 896.881 936.438 895.944 936.438H890.421V947.243ZM923.539 963.57C921.439 963.57 919.598 963.102 918.016 962.165C916.433 961.228 915.206 959.985 914.333 958.434C913.461 956.884 913.025 955.172 913.025 953.299V929.655H921.165V953.88C921.165 954.655 921.439 955.334 921.989 955.915C922.538 956.496 923.216 956.787 924.023 956.787H932.987V963.57H923.539ZM953.307 964.2C950.593 964.2 948.139 963.748 945.942 962.843C943.746 961.939 941.856 960.679 940.274 959.064C938.691 957.449 937.463 955.576 936.591 953.444C935.752 951.312 935.332 949.019 935.332 946.564C935.332 944.109 935.752 941.816 936.591 939.684C937.463 937.553 938.675 935.695 940.225 934.113C941.808 932.498 943.697 931.254 945.894 930.382C948.122 929.477 950.593 929.025 953.307 929.025C955.988 929.025 958.426 929.477 960.623 930.382C962.851 931.254 964.741 932.498 966.291 934.113C967.874 935.695 969.101 937.569 969.973 939.733C970.846 941.865 971.282 944.142 971.282 946.564C971.282 949.019 970.846 951.312 969.973 953.444C969.101 955.576 967.874 957.449 966.291 959.064C964.741 960.679 962.851 961.939 960.623 962.843C958.426 963.748 955.988 964.2 953.307 964.2ZM953.307 957.272C954.728 957.272 956.036 957.013 957.231 956.496C958.458 955.947 959.508 955.188 960.38 954.219C961.252 953.25 961.931 952.12 962.415 950.828C962.9 949.504 963.142 948.082 963.142 946.564C963.142 945.046 962.9 943.641 962.415 942.349C961.931 941.057 961.252 939.927 960.38 938.958C959.508 937.989 958.458 937.246 957.231 936.729C956.036 936.18 954.728 935.905 953.307 935.905C951.853 935.905 950.529 936.18 949.334 936.729C948.139 937.246 947.089 937.989 946.184 938.958C945.312 939.927 944.634 941.073 944.15 942.398C943.697 943.69 943.471 945.078 943.471 946.564C943.471 948.082 943.697 949.504 944.15 950.828C944.634 952.12 945.312 953.25 946.184 954.219C947.089 955.188 948.139 955.947 949.334 956.496C950.529 957.013 951.853 957.272 953.307 957.272ZM975.585 963.57V929.655H991.089C993.383 929.655 995.466 930.156 997.339 931.157C999.245 932.158 1000.75 933.547 1001.85 935.324C1002.98 937.1 1003.54 939.151 1003.54 941.477C1003.54 943.641 1003.02 945.595 1001.99 947.339C1000.96 949.051 999.6 950.44 997.921 951.506L1000.63 956.109C1000.8 956.335 1000.97 956.513 1001.17 956.642C1001.39 956.771 1001.68 956.836 1002.04 956.836H1005.04V963.57H1000.29C998.841 963.57 997.517 963.231 996.322 962.553C995.127 961.842 994.19 960.922 993.512 959.791L989.878 953.347C989.652 953.347 989.41 953.347 989.151 953.347C988.925 953.347 988.683 953.347 988.425 953.347H983.725V963.57H975.585ZM983.725 946.613H990.169C991.105 946.613 991.978 946.419 992.785 946.031C993.593 945.611 994.222 945.03 994.675 944.287C995.159 943.512 995.401 942.591 995.401 941.525C995.401 940.46 995.159 939.555 994.675 938.812C994.19 938.037 993.544 937.456 992.737 937.068C991.961 936.648 991.105 936.438 990.169 936.438H983.725V946.613ZM1017.77 963.57C1015.86 963.57 1014.13 963.134 1012.58 962.262C1011.03 961.358 1009.79 960.163 1008.85 958.677C1007.95 957.159 1007.49 955.447 1007.49 953.541C1007.49 952.12 1007.8 950.796 1008.41 949.568C1009.06 948.308 1009.92 947.226 1010.98 946.322C1009.95 945.45 1009.13 944.416 1008.51 943.221C1007.93 942.026 1007.64 940.766 1007.64 939.442C1007.64 937.569 1008.09 935.905 1009 934.452C1009.9 932.966 1011.11 931.803 1012.63 930.963C1014.15 930.091 1015.83 929.655 1017.67 929.655H1031.96V936.487L1018.93 936.438C1018.31 936.438 1017.75 936.584 1017.23 936.874C1016.72 937.165 1016.3 937.553 1015.97 938.037C1015.68 938.522 1015.54 939.087 1015.54 939.733C1015.54 940.346 1015.68 940.912 1015.97 941.429C1016.3 941.913 1016.72 942.301 1017.23 942.591C1017.75 942.85 1018.31 942.979 1018.93 942.979H1030.31V949.762H1019.17C1018.49 949.762 1017.88 949.923 1017.33 950.246C1016.78 950.569 1016.34 950.989 1016.02 951.506C1015.7 952.023 1015.54 952.62 1015.54 953.299C1015.54 953.945 1015.7 954.542 1016.02 955.091C1016.34 955.608 1016.78 956.012 1017.33 956.303C1017.88 956.593 1018.49 956.739 1019.17 956.739H1031.96V963.57H1017.77ZM1055.83 963.57V954.316C1053.76 953.832 1051.95 952.992 1050.4 951.797C1048.89 950.569 1047.71 949.035 1046.87 947.194C1046.03 945.321 1045.61 943.173 1045.61 940.75V929.655H1053.55V941.186C1053.55 942.414 1053.81 943.544 1054.33 944.578C1054.85 945.579 1055.57 946.387 1056.51 947C1057.48 947.582 1058.61 947.872 1059.9 947.872C1061.19 947.872 1062.31 947.582 1063.24 947C1064.21 946.387 1064.96 945.579 1065.47 944.578C1065.99 943.544 1066.25 942.414 1066.25 941.186V929.655H1074.19V940.75C1074.19 943.173 1073.77 945.321 1072.93 947.194C1072.09 949.035 1070.9 950.569 1069.35 951.797C1067.8 953.024 1065.99 953.864 1063.92 954.316V963.57H1055.83ZM1094.92 964.2C1092.21 964.2 1089.75 963.748 1087.55 962.843C1085.36 961.939 1083.47 960.679 1081.89 959.064C1080.3 957.449 1079.08 955.576 1078.2 953.444C1077.36 951.312 1076.94 949.019 1076.94 946.564C1076.94 944.109 1077.36 941.816 1078.2 939.684C1079.08 937.553 1080.29 935.695 1081.84 934.113C1083.42 932.498 1085.31 931.254 1087.51 930.382C1089.73 929.477 1092.21 929.025 1094.92 929.025C1097.6 929.025 1100.04 929.477 1102.23 930.382C1104.46 931.254 1106.35 932.498 1107.9 934.113C1109.49 935.695 1110.71 937.569 1111.59 939.733C1112.46 941.865 1112.89 944.142 1112.89 946.564C1112.89 949.019 1112.46 951.312 1111.59 953.444C1110.71 955.576 1109.49 957.449 1107.9 959.064C1106.35 960.679 1104.46 961.939 1102.23 962.843C1100.04 963.748 1097.6 964.2 1094.92 964.2ZM1094.92 957.272C1096.34 957.272 1097.65 957.013 1098.84 956.496C1100.07 955.947 1101.12 955.188 1101.99 954.219C1102.86 953.25 1103.54 952.12 1104.03 950.828C1104.51 949.504 1104.75 948.082 1104.75 946.564C1104.75 945.046 1104.51 943.641 1104.03 942.349C1103.54 941.057 1102.86 939.927 1101.99 938.958C1101.12 937.989 1100.07 937.246 1098.84 936.729C1097.65 936.18 1096.34 935.905 1094.92 935.905C1093.47 935.905 1092.14 936.18 1090.95 936.729C1089.75 937.246 1088.7 937.989 1087.8 938.958C1086.92 939.927 1086.25 941.073 1085.76 942.398C1085.31 943.69 1085.08 945.078 1085.08 946.564C1085.08 948.082 1085.31 949.504 1085.76 950.828C1086.25 952.12 1086.92 953.25 1087.8 954.219C1088.7 955.188 1089.75 955.947 1090.95 956.496C1092.14 957.013 1093.47 957.272 1094.92 957.272ZM1131.49 964.152C1128.68 964.152 1126.18 963.586 1123.98 962.456C1121.82 961.325 1120.12 959.71 1118.89 957.611C1117.67 955.511 1117.05 953.008 1117.05 950.101V929.655H1125.1V950.537C1125.1 951.797 1125.35 952.943 1125.87 953.977C1126.39 954.978 1127.13 955.786 1128.1 956.4C1129.07 956.981 1130.2 957.272 1131.49 957.272C1132.81 957.272 1133.95 956.981 1134.88 956.4C1135.85 955.786 1136.59 954.978 1137.11 953.977C1137.63 952.943 1137.89 951.797 1137.89 950.537V929.655H1145.93V950.101C1145.93 953.008 1145.3 955.511 1144.04 957.611C1142.81 959.71 1141.12 961.325 1138.95 962.456C1136.79 963.586 1134.3 964.152 1131.49 964.152ZM1151.64 963.57V929.655H1167.15C1169.44 929.655 1171.52 930.156 1173.4 931.157C1175.3 932.158 1176.8 933.547 1177.9 935.324C1179.03 937.1 1179.6 939.151 1179.6 941.477C1179.6 943.641 1179.08 945.595 1178.05 947.339C1177.01 949.051 1175.66 950.44 1173.98 951.506L1176.69 956.109C1176.85 956.335 1177.03 956.513 1177.22 956.642C1177.45 956.771 1177.74 956.836 1178.1 956.836H1181.1V963.57H1176.35C1174.9 963.57 1173.57 963.231 1172.38 962.553C1171.18 961.842 1170.25 960.922 1169.57 959.791L1165.94 953.347C1165.71 953.347 1165.47 953.347 1165.21 953.347C1164.98 953.347 1164.74 953.347 1164.48 953.347H1159.78V963.57H1151.64ZM1159.78 946.613H1166.23C1167.16 946.613 1168.03 946.419 1168.84 946.031C1169.65 945.611 1170.28 945.03 1170.73 944.287C1171.22 943.512 1171.46 942.591 1171.46 941.525C1171.46 940.46 1171.22 939.555 1170.73 938.812C1170.25 938.037 1169.6 937.456 1168.79 937.068C1168.02 936.648 1167.16 936.438 1166.23 936.438H1159.78V946.613ZM1196.81 963.57V956.787H1202.67V936.438H1196.81V929.655H1216.63V936.438H1210.76V956.787H1216.63V963.57H1196.81ZM1221.76 963.57V929.655H1234.21C1237.8 929.655 1240.9 930.382 1243.52 931.835C1246.17 933.289 1248.22 935.292 1249.67 937.843C1251.16 940.395 1251.9 943.318 1251.9 946.613C1251.9 949.907 1251.16 952.83 1249.67 955.382C1248.22 957.934 1246.17 959.936 1243.52 961.39C1240.9 962.843 1237.8 963.57 1234.21 963.57H1221.76ZM1229.9 956.787H1234.02C1235.89 956.787 1237.56 956.383 1239.01 955.576C1240.5 954.736 1241.66 953.557 1242.5 952.039C1243.34 950.521 1243.76 948.712 1243.76 946.613C1243.76 944.513 1243.34 942.704 1242.5 941.186C1241.66 939.668 1240.5 938.505 1239.01 937.698C1237.56 936.858 1235.89 936.438 1234.02 936.438H1229.9V956.787ZM1265.27 963.57C1263.36 963.57 1261.63 963.134 1260.08 962.262C1258.53 961.358 1257.29 960.163 1256.35 958.677C1255.45 957.159 1255 955.447 1255 953.541C1255 952.12 1255.3 950.796 1255.92 949.568C1256.56 948.308 1257.42 947.226 1258.48 946.322C1257.45 945.45 1256.63 944.416 1256.01 943.221C1255.43 942.026 1255.14 940.766 1255.14 939.442C1255.14 937.569 1255.59 935.905 1256.5 934.452C1257.4 932.966 1258.61 931.803 1260.13 930.963C1261.65 930.091 1263.33 929.655 1265.17 929.655H1279.46V936.487L1266.43 936.438C1265.82 936.438 1265.25 936.584 1264.73 936.874C1264.22 937.165 1263.8 937.553 1263.48 938.037C1263.18 938.522 1263.04 939.087 1263.04 939.733C1263.04 940.346 1263.18 940.912 1263.48 941.429C1263.8 941.913 1264.22 942.301 1264.73 942.591C1265.25 942.85 1265.82 942.979 1266.43 942.979H1277.82V949.762H1266.67C1265.99 949.762 1265.38 949.923 1264.83 950.246C1264.28 950.569 1263.85 950.989 1263.52 951.506C1263.2 952.023 1263.04 952.62 1263.04 953.299C1263.04 953.945 1263.2 954.542 1263.52 955.091C1263.85 955.608 1264.28 956.012 1264.83 956.303C1265.38 956.593 1265.99 956.739 1266.67 956.739H1279.46V963.57H1265.27ZM1281.36 963.57L1292.36 933.58C1292.9 932.094 1293.81 930.979 1295.07 930.237C1296.33 929.461 1297.75 929.074 1299.33 929.074C1300.91 929.074 1302.34 929.445 1303.6 930.188C1304.86 930.899 1305.76 932.013 1306.31 933.531L1317.36 963.57H1308.59L1306.45 957.029H1292.06L1289.84 963.57H1281.36ZM1294.15 950.295H1304.37L1300.06 936.777C1299.99 936.584 1299.9 936.454 1299.77 936.39C1299.67 936.293 1299.54 936.244 1299.38 936.244C1299.22 936.244 1299.07 936.293 1298.94 936.39C1298.85 936.487 1298.78 936.616 1298.75 936.777L1294.15 950.295ZM1329.69 963.57C1327.59 963.57 1325.75 963.102 1324.16 962.165C1322.58 961.228 1321.35 959.985 1320.48 958.434C1319.61 956.884 1319.17 955.172 1319.17 953.299V929.655H1327.31V953.88C1327.31 954.655 1327.59 955.334 1328.14 955.915C1328.69 956.496 1329.36 956.787 1330.17 956.787H1339.13V963.57H1329.69ZM1356.05 963.57V956.787H1370.53C1371.18 956.787 1371.76 956.626 1372.28 956.303C1372.79 955.98 1373.2 955.56 1373.49 955.043C1373.81 954.526 1373.97 953.961 1373.97 953.347C1373.97 952.701 1373.81 952.12 1373.49 951.603C1373.2 951.086 1372.79 950.666 1372.28 950.343C1371.76 950.02 1371.18 949.859 1370.53 949.859H1365.3C1363.33 949.859 1361.54 949.471 1359.92 948.696C1358.31 947.921 1357.01 946.79 1356.05 945.305C1355.11 943.786 1354.64 941.978 1354.64 939.878C1354.64 937.811 1355.09 936.018 1356 934.5C1356.9 932.982 1358.13 931.803 1359.68 930.963C1361.23 930.091 1362.94 929.655 1364.82 929.655H1379.79V936.438H1365.74C1365.15 936.438 1364.62 936.584 1364.14 936.874C1363.65 937.165 1363.28 937.553 1363.02 938.037C1362.76 938.522 1362.64 939.054 1362.64 939.636C1362.64 940.217 1362.76 940.75 1363.02 941.235C1363.28 941.687 1363.65 942.058 1364.14 942.349C1364.62 942.64 1365.15 942.785 1365.74 942.785H1371.21C1373.37 942.785 1375.25 943.205 1376.83 944.045C1378.45 944.852 1379.69 945.999 1380.56 947.485C1381.47 948.938 1381.92 950.65 1381.92 952.62C1381.92 954.946 1381.45 956.933 1380.51 958.58C1379.61 960.195 1378.38 961.438 1376.83 962.31C1375.28 963.15 1373.57 963.57 1371.7 963.57H1356.05ZM1386.42 963.57V929.655H1401C1403.26 929.655 1405.33 930.172 1407.2 931.206C1409.11 932.239 1410.63 933.676 1411.76 935.518C1412.89 937.326 1413.45 939.426 1413.45 941.816C1413.45 944.206 1412.89 946.338 1411.76 948.212C1410.63 950.053 1409.12 951.49 1407.25 952.524C1405.38 953.557 1403.29 954.074 1401 954.074H1394.56V963.57H1386.42ZM1394.56 947.243H1400.08C1401.05 947.243 1401.92 947.033 1402.7 946.613C1403.47 946.193 1404.1 945.579 1404.59 944.772C1405.07 943.964 1405.31 942.995 1405.31 941.865C1405.31 940.734 1405.07 939.765 1404.59 938.958C1404.1 938.15 1403.46 937.536 1402.65 937.116C1401.87 936.664 1401.02 936.438 1400.08 936.438H1394.56V947.243ZM1412.23 963.57L1423.23 933.58C1423.78 932.094 1424.68 930.979 1425.94 930.237C1427.2 929.461 1428.62 929.074 1430.2 929.074C1431.79 929.074 1433.21 929.445 1434.47 930.188C1435.73 930.899 1436.63 932.013 1437.18 933.531L1448.23 963.57H1439.46L1437.33 957.029H1422.94L1420.71 963.57H1412.23ZM1425.02 950.295H1435.24L1430.93 936.777C1430.87 936.584 1430.77 936.454 1430.64 936.39C1430.54 936.293 1430.41 936.244 1430.25 936.244C1430.09 936.244 1429.95 936.293 1429.82 936.39C1429.72 936.487 1429.65 936.616 1429.62 936.777L1425.02 950.295ZM1466.2 963.57C1463.42 963.538 1460.92 963.086 1458.69 962.214C1456.46 961.341 1454.57 960.146 1453.02 958.628C1451.47 957.11 1450.27 955.334 1449.43 953.299C1448.59 951.232 1448.17 949.003 1448.17 946.613C1448.17 944.222 1448.59 942.01 1449.43 939.975C1450.27 937.908 1451.47 936.115 1453.02 934.597C1454.6 933.079 1456.49 931.884 1458.69 931.012C1460.92 930.14 1463.42 929.687 1466.2 929.655H1471.43V936.438H1466.39C1464.87 936.47 1463.48 936.745 1462.22 937.262C1461 937.779 1459.93 938.489 1459.03 939.394C1458.15 940.298 1457.48 941.364 1456.99 942.591C1456.54 943.819 1456.31 945.159 1456.31 946.613C1456.31 948.066 1456.54 949.407 1456.99 950.634C1457.48 951.861 1458.15 952.927 1459.03 953.832C1459.93 954.736 1461 955.447 1462.22 955.964C1463.48 956.48 1464.87 956.755 1466.39 956.787H1471.43V963.57H1466.2ZM1485.09 963.57C1483.19 963.57 1481.46 963.134 1479.91 962.262C1478.36 961.358 1477.11 960.163 1476.18 958.677C1475.27 957.159 1474.82 955.447 1474.82 953.541C1474.82 952.12 1475.13 950.796 1475.74 949.568C1476.39 948.308 1477.24 947.226 1478.31 946.322C1477.27 945.45 1476.45 944.416 1475.84 943.221C1475.26 942.026 1474.97 940.766 1474.97 939.442C1474.97 937.569 1475.42 935.905 1476.32 934.452C1477.23 932.966 1478.44 931.803 1479.96 930.963C1481.47 930.091 1483.15 929.655 1484.99 929.655H1499.29V936.487L1486.25 936.438C1485.64 936.438 1485.07 936.584 1484.56 936.874C1484.04 937.165 1483.62 937.553 1483.3 938.037C1483.01 938.522 1482.86 939.087 1482.86 939.733C1482.86 940.346 1483.01 940.912 1483.3 941.429C1483.62 941.913 1484.04 942.301 1484.56 942.591C1485.07 942.85 1485.64 942.979 1486.25 942.979H1497.64V949.762H1486.5C1485.82 949.762 1485.2 949.923 1484.66 950.246C1484.11 950.569 1483.67 950.989 1483.35 951.506C1483.02 952.023 1482.86 952.62 1482.86 953.299C1482.86 953.945 1483.02 954.542 1483.35 955.091C1483.67 955.608 1484.11 956.012 1484.66 956.303C1485.2 956.593 1485.82 956.739 1486.5 956.739H1499.29V963.57H1485.09ZM1530.28 964.152C1527.6 964.152 1525.23 963.619 1523.16 962.553C1521.12 961.455 1519.53 959.888 1518.36 957.853C1517.2 955.818 1516.62 953.412 1516.62 950.634V929.655H1524.61V950.925C1524.61 952.088 1524.84 953.137 1525.29 954.074C1525.74 955.011 1526.39 955.754 1527.23 956.303C1528.1 956.852 1529.12 957.126 1530.28 957.126C1531.44 957.126 1532.45 956.852 1533.29 956.303C1534.13 955.754 1534.77 955.011 1535.22 954.074C1535.71 953.137 1535.95 952.088 1535.95 950.925V929.655H1543.94V950.925C1543.94 952.088 1544.17 953.137 1544.62 954.074C1545.08 955.011 1545.72 955.754 1546.56 956.303C1547.43 956.852 1548.45 957.126 1549.61 957.126C1550.78 957.126 1551.78 956.852 1552.62 956.303C1553.49 955.754 1554.15 955.011 1554.6 954.074C1555.06 953.137 1555.28 952.088 1555.28 950.925V929.655H1563.28V950.634C1563.28 953.412 1562.69 955.818 1561.53 957.853C1560.37 959.888 1558.75 961.455 1556.69 962.553C1554.65 963.619 1552.29 964.152 1549.61 964.152C1548.29 964.152 1547.03 963.99 1545.83 963.667C1544.67 963.376 1543.59 962.924 1542.59 962.31C1541.62 961.697 1540.73 960.954 1539.92 960.082C1539.15 960.954 1538.26 961.697 1537.26 962.31C1536.26 962.892 1535.18 963.344 1534.01 963.667C1532.85 963.99 1531.61 964.152 1530.28 964.152ZM1568.09 963.57V956.787H1573.95V936.438H1568.09V929.655H1587.9V936.438H1582.04V956.787H1587.9V963.57H1568.09ZM1606.84 963.57C1604.77 963.57 1602.95 963.118 1601.36 962.214C1599.81 961.277 1598.59 960.033 1597.68 958.483C1596.81 956.933 1596.37 955.204 1596.37 953.299V936.438H1587.17V929.655H1613.67V936.438H1604.51V954.026C1604.51 954.768 1604.77 955.414 1605.29 955.964C1605.8 956.513 1606.45 956.787 1607.23 956.787H1609.89V963.57H1606.84ZM1617.36 963.57V929.655H1625.5V942.979H1638.73V929.655H1646.87V963.57H1638.73V949.762H1625.5V963.57H1617.36ZM1679.91 964.152C1677.1 964.152 1674.6 963.586 1672.4 962.456C1670.24 961.325 1668.54 959.71 1667.32 957.611C1666.09 955.511 1665.47 953.008 1665.47 950.101V929.655H1673.52V950.537C1673.52 951.797 1673.78 952.943 1674.29 953.977C1674.81 954.978 1675.55 955.786 1676.52 956.4C1677.49 956.981 1678.62 957.272 1679.91 957.272C1681.24 957.272 1682.37 956.981 1683.3 956.4C1684.27 955.786 1685.02 954.978 1685.53 953.977C1686.05 952.943 1686.31 951.797 1686.31 950.537V929.655H1694.35V950.101C1694.35 953.008 1693.72 955.511 1692.46 957.611C1691.23 959.71 1689.54 961.325 1687.37 962.456C1685.21 963.586 1682.72 964.152 1679.91 964.152ZM1700.26 963.57V956.787H1714.75C1715.39 956.787 1715.97 956.626 1716.49 956.303C1717.01 955.98 1717.41 955.56 1717.7 955.043C1718.02 954.526 1718.19 953.961 1718.19 953.347C1718.19 952.701 1718.02 952.12 1717.7 951.603C1717.41 951.086 1717.01 950.666 1716.49 950.343C1715.97 950.02 1715.39 949.859 1714.75 949.859H1709.51C1707.54 949.859 1705.75 949.471 1704.14 948.696C1702.52 947.921 1701.23 946.79 1700.26 945.305C1699.32 943.786 1698.85 941.978 1698.85 939.878C1698.85 937.811 1699.31 936.018 1700.21 934.5C1701.11 932.982 1702.34 931.803 1703.89 930.963C1705.44 930.091 1707.16 929.655 1709.03 929.655H1724V936.438H1709.95C1709.37 936.438 1708.83 936.584 1708.35 936.874C1707.87 937.165 1707.49 937.553 1707.24 938.037C1706.98 938.522 1706.85 939.054 1706.85 939.636C1706.85 940.217 1706.98 940.75 1707.24 941.235C1707.49 941.687 1707.87 942.058 1708.35 942.349C1708.83 942.64 1709.37 942.785 1709.95 942.785H1715.42C1717.59 942.785 1719.46 943.205 1721.04 944.045C1722.66 944.852 1723.9 945.999 1724.77 947.485C1725.68 948.938 1726.13 950.65 1726.13 952.62C1726.13 954.946 1725.66 956.933 1724.73 958.58C1723.82 960.195 1722.59 961.438 1721.04 962.31C1719.49 963.15 1717.78 963.57 1715.91 963.57H1700.26Z" fill="#085800"/>
<path d="M860.322 822L827.393 768.228H824.065H796.391V822H792.888V698.692H823.715C837.26 698.692 847.302 701.786 853.841 707.975C860.497 714.164 863.825 722.63 863.825 733.372C863.825 743.298 861.023 751.238 855.418 757.193C849.813 763.148 841.814 766.71 831.422 767.878L864.701 822H860.322ZM824.065 764.9C836.093 764.9 845.084 762.039 851.039 756.318C857.111 750.596 860.147 742.947 860.147 733.372C860.147 712.588 848.003 702.195 823.715 702.195H796.391V764.9H824.065ZM916.398 701.845V758.77H967.894V761.922H916.398V818.847H973.148V822H912.895V698.692H973.148V701.845H916.398ZM1091.29 788.02H1030.34L1017.38 822H1013.35L1059.06 702.37H1062.57L1108.11 822H1104.08L1091.29 788.02ZM1090.07 784.868L1060.82 707.975L1031.56 784.868H1090.07ZM1157.95 818.847H1205.24V822H1154.45V698.692H1157.95V818.847ZM1313.76 698.692V701.845H1277.85V822H1274.35V701.845H1238.44V698.692H1313.76ZM1412.85 823.401C1401.52 823.401 1391.36 820.774 1382.37 815.519C1373.49 810.148 1366.55 802.675 1361.53 793.1C1356.5 783.525 1353.99 772.665 1353.99 760.521C1353.99 748.377 1356.5 737.518 1361.53 727.943C1366.55 718.368 1373.49 710.953 1382.37 705.698C1391.36 700.327 1401.52 697.641 1412.85 697.641C1424.17 697.641 1434.27 700.327 1443.15 705.698C1452.14 710.953 1459.14 718.368 1464.17 727.943C1469.19 737.518 1471.7 748.377 1471.7 760.521C1471.7 772.665 1469.19 783.525 1464.17 793.1C1459.14 802.675 1452.14 810.148 1443.15 815.519C1434.27 820.774 1424.17 823.401 1412.85 823.401ZM1412.85 820.248C1423.12 820.248 1432.46 817.855 1440.87 813.067C1449.28 808.163 1455.88 801.215 1460.66 792.224C1465.57 783.116 1468.02 772.548 1468.02 760.521C1468.02 748.494 1465.57 737.985 1460.66 728.994C1455.88 719.886 1449.28 712.938 1440.87 708.15C1432.46 703.246 1423.12 700.794 1412.85 700.794C1402.57 700.794 1393.23 703.246 1384.82 708.15C1376.41 712.938 1369.76 719.886 1364.85 728.994C1360.07 737.985 1357.67 748.494 1357.67 760.521C1357.67 772.548 1360.07 783.116 1364.85 792.224C1369.76 801.215 1376.41 808.163 1384.82 813.067C1393.23 817.855 1402.57 820.248 1412.85 820.248ZM1590.8 822L1557.87 768.228H1554.54H1526.87V822H1523.37V698.692H1554.19C1567.74 698.692 1577.78 701.786 1584.32 707.975C1590.98 714.164 1594.3 722.63 1594.3 733.372C1594.3 743.298 1591.5 751.238 1585.9 757.193C1580.29 763.148 1572.29 766.71 1561.9 767.878L1595.18 822H1590.8ZM1554.54 764.9C1566.57 764.9 1575.56 762.039 1581.52 756.318C1587.59 750.596 1590.62 742.947 1590.62 733.372C1590.62 712.588 1578.48 702.195 1554.19 702.195H1526.87V764.9H1554.54ZM1677.18 823.226C1669.35 823.226 1662.52 821.825 1656.69 819.022C1650.96 816.22 1646.53 812.542 1643.37 807.988C1640.22 803.317 1638.35 798.296 1637.77 792.925H1641.27C1641.86 797.011 1643.32 801.098 1645.65 805.185C1648.1 809.272 1651.9 812.775 1657.04 815.694C1662.29 818.614 1669 820.073 1677.18 820.073C1683.72 820.073 1689.5 818.847 1694.52 816.395C1699.54 813.826 1703.39 810.44 1706.08 806.236C1708.76 802.033 1710.11 797.362 1710.11 792.224C1710.11 785.568 1708.59 780.314 1705.55 776.46C1702.52 772.49 1698.72 769.571 1694.17 767.702C1689.73 765.834 1683.72 763.907 1676.13 761.922C1668.19 759.821 1661.82 757.719 1657.04 755.617C1652.25 753.515 1648.16 750.304 1644.77 745.983C1641.51 741.546 1639.87 735.591 1639.87 728.118C1639.87 722.746 1641.33 717.725 1644.25 713.055C1647.29 708.267 1651.55 704.472 1657.04 701.67C1662.64 698.867 1669 697.466 1676.13 697.466C1683.37 697.466 1689.61 698.75 1694.87 701.319C1700.12 703.888 1704.21 707.158 1707.13 711.128C1710.17 714.981 1712.15 719.068 1713.08 723.389H1709.58C1708.76 720.002 1707.07 716.558 1704.5 713.055C1701.93 709.552 1698.25 706.632 1693.47 704.297C1688.68 701.845 1682.9 700.619 1676.13 700.619C1670.17 700.619 1664.68 701.786 1659.66 704.122C1654.76 706.34 1650.79 709.552 1647.75 713.755C1644.83 717.842 1643.37 722.63 1643.37 728.118C1643.37 734.89 1644.89 740.32 1647.93 744.407C1651.08 748.377 1654.93 751.355 1659.49 753.34C1664.04 755.208 1670.11 757.135 1677.7 759.12C1685.64 761.222 1691.95 763.324 1696.62 765.425C1701.41 767.411 1705.44 770.563 1708.71 774.884C1711.98 779.087 1713.61 784.868 1713.61 792.224C1713.61 797.362 1712.21 802.324 1709.41 807.112C1706.72 811.899 1702.63 815.811 1697.15 818.847C1691.66 821.766 1685 823.226 1677.18 823.226Z" fill="white"/>
<path d="M961.735 651.762C951.323 651.762 942.863 650.099 936.355 646.772C929.847 643.591 925.075 638.602 922.038 631.805C919.146 624.863 917.699 615.969 917.699 605.123V528.331L870.193 642H863.034L804.899 523.993V642H794.052V498.83H820.517L873.013 605.34L917.483 498.83H945.9V605.123C945.9 618.283 946.984 628.189 949.154 634.841C951.467 641.349 955.661 645.182 961.735 646.338V651.762ZM1007.8 642C1002.74 642 998.761 641.205 995.869 639.614C993.121 637.878 991.169 634.986 990.012 630.937C988.855 626.743 988.276 621.031 988.276 613.8V498.83H1016.48V613.8C1016.48 620.308 1017.34 625.586 1019.08 629.635C1020.96 633.54 1025.15 635.492 1031.66 635.492H1033.83V642H1007.8ZM1093.86 642V508.591H1078.45C1070.79 508.591 1064.72 510.544 1060.23 514.448C1055.75 518.208 1053.51 524.933 1053.51 534.622H1047V516.184C1047 513.291 1047.51 510.544 1048.52 507.941C1049.53 505.193 1051.34 503.024 1053.94 501.433C1056.69 499.697 1060.52 498.83 1065.44 498.83H1167.39V508.591H1122.06V642H1093.86ZM1296.07 644.169C1291.01 644.169 1286.17 643.157 1281.54 641.132C1276.91 639.108 1272.35 635.854 1267.87 631.371C1263.53 626.743 1258.98 620.524 1254.21 612.715L1232.51 576.489H1223.84V642H1195.42V527.03C1195.42 520.522 1194.48 515.316 1192.6 511.411C1190.86 507.362 1186.74 505.337 1180.23 505.337H1178.06V498.83H1237.94C1241.84 498.83 1246.32 499.119 1251.39 499.697C1256.59 500.131 1261.8 501.144 1267 502.734C1272.21 504.181 1277.05 506.35 1281.54 509.242C1286.02 512.134 1289.64 515.967 1292.38 520.739C1295.13 525.367 1296.51 531.151 1296.51 538.093C1296.51 545.758 1294.77 552.049 1291.3 556.966C1287.97 561.738 1283.64 565.498 1278.28 568.246C1272.93 570.993 1267.29 573.163 1261.36 574.753L1284.14 612.715C1289.64 621.971 1294.7 628.117 1299.33 631.154C1303.95 634.191 1307.86 635.998 1311.04 636.577V642C1309.88 642.578 1307.79 643.085 1304.75 643.518C1301.86 643.952 1298.96 644.169 1296.07 644.169ZM1223.84 567.812H1236.85C1240.32 567.812 1243.79 567.306 1247.26 566.293C1250.73 565.281 1253.84 563.618 1256.59 561.304C1259.48 558.99 1261.8 555.881 1263.53 551.976C1265.27 548.072 1266.14 543.299 1266.14 537.659C1266.14 532.019 1265.27 527.319 1263.53 523.559C1261.94 519.654 1259.7 516.545 1256.81 514.231C1254.06 511.773 1250.95 510.037 1247.48 509.025C1244.15 508.013 1240.76 507.507 1237.29 507.507C1236.13 507.507 1234.39 507.579 1232.08 507.724C1229.91 507.868 1227.16 508.302 1223.84 509.025V567.812Z" fill="#E5B80B"/>
<path d="M1452.04 599.917H1376.55L1360.5 642H1355.51L1412.13 493.84H1416.46L1472.86 642H1467.87L1452.04 599.917ZM1450.52 596.012L1414.29 500.782L1378.07 596.012H1450.52ZM1591.65 489.285L1544.36 578.007V642H1540.02V578.007L1492.3 489.285H1497.5L1541.97 573.235L1586.44 489.285H1591.65ZM1626.27 489.285V584.081C1626.27 603.46 1630.46 617.56 1638.85 626.381C1647.38 635.203 1658.88 639.614 1673.34 639.614C1687.51 639.614 1698.72 635.203 1706.96 626.381C1715.2 617.56 1719.33 603.46 1719.33 584.081V489.285H1723.66V584.081C1723.66 604.327 1719.18 619.295 1710.22 628.985C1701.39 638.674 1689.1 643.518 1673.34 643.518C1657.57 643.518 1645.07 638.674 1635.81 628.985C1626.55 619.151 1621.93 604.183 1621.93 584.081V489.285H1626.27Z" fill="#E5B80B"/>
</svg>
